<svg xmlns="http://www.w3.org/2000/svg" viewBox="0 0 368.92 64.00" width="369" height="64" role="img" aria-label="Salutti Estética"><defs><linearGradient id="g" x1="0" y1="64" x2="64" y2="0" gradientUnits="userSpaceOnUse"><stop offset="0" stop-color="#6b4fa8"/><stop offset=".55" stop-color="#a88fd6"/><stop offset="1" stop-color="#eea58c"/></linearGradient></defs><path fill="url(#g)" d="M29.0 35.0V21.0A14.0 14.0 0 0 1 43.0 7.0A14.0 14.0 0 0 1 57.0 21.0A14.0 14.0 0 0 1 43.0 35.0Z"/><path fill="url(#g)" fill-opacity=".6" d="M35.0 29.0V43.0A14.0 14.0 0 0 1 21.0 57.0A14.0 14.0 0 0 1 7.0 43.0A14.0 14.0 0 0 1 21.0 29.0Z"/><g transform="translate(80.70 5.02) scale(0.06919)"><path fill="#16121f" d="M270 772Q199 772 150.5 749.5Q102 727 76.0 687.0Q50 647 46 597L115 592Q121 645 158.0 677.0Q195 709 270 709Q333 709 366.0 688.0Q399 667 399 623Q399 599 389.0 582.5Q379 566 348.0 553.5Q317 541 255 530Q181 516 140.5 496.0Q100 476 84.5 447.0Q69 418 69 377Q69 306 120.5 262.0Q172 218 263 218Q331 218 374.5 241.5Q418 265 440.5 303.0Q463 341 469 384L400 390Q397 361 382.5 336.5Q368 312 339.0 296.5Q310 281 261 281Q201 281 169.5 306.5Q138 332 138 374Q138 403 149.0 421.5Q160 440 189.0 451.5Q218 463 271 472Q348 484 391.0 503.5Q434 523 451.5 552.0Q469 581 469 622Q469 694 414.5 733.0Q360 772 270 772Z M700 772Q620 772 572.0 733.5Q524 695 524.0 629.0Q524 563 566.0 525.0Q608 487 689 472L885 435Q885 356 851.0 318.5Q817 281 748 281Q687 281 651.0 310.0Q615 339 603 392L533 386Q548 309 603.5 263.5Q659 218 748 218Q847 218 899.0 274.0Q951 330 951 434V655Q951 682 959.5 691.5Q968 701 987 701H1003V760Q999 761 991.5 761.5Q984 762 976 762Q945 762 924.5 751.0Q904 740 895 715Q888 697 886 668Q876 691 857 710Q829 739 788.0 755.5Q747 772 700 772ZM706 713Q761 713 801.0 691.0Q841 669 863.0 631.5Q885 594 885 547V494L703 528Q646 539 619.5 562.0Q593 585 593 623Q593 666 623.0 689.5Q653 713 706 713Z M1166 760Q1121 760 1095.0 737.5Q1069 715 1069 667V50H1135V662Q1135 681 1145.0 691.0Q1155 701 1175 701H1217V760Z M1462 772Q1383 772 1335.5 718.5Q1288 665 1288 571V230H1354V551Q1354 633 1385.5 673.0Q1417 713 1479 713Q1548 713 1587.5 668.0Q1627 623 1627 546V230H1693V760H1631L1630 664Q1614 707 1581 734Q1534 772 1462 772Z M2021 760Q1941 760 1903.5 723.0Q1866 686 1866 607V325H1782V226H1866V101H1994V226H2135V325H1994V595Q1994 632 2010.0 646.5Q2026 661 2060 661H2135V760Z M2410 760Q2330 760 2292.5 723.0Q2255 686 2255 607V325H2171V226H2255V101H2383V226H2524V325H2383V595Q2383 632 2399.0 646.5Q2415 661 2449 661H2524V760Z M2585 760V226H2713V760Z"/><path fill="#eea58c" d="M2574.5 172V97.0A75.0 75.0 0 0 1 2649.5 22A75.0 75.0 0 0 1 2724.5 97.0A75.0 75.0 0 0 1 2649.5 172Z"/></g><rect x="283.32" y="23.85" width="85.60" height="30.0" rx="6" fill="#d8c8ee"/><path fill="#3e2b6b" d="M296.23 44.74Q294.86 44.74 294.09 44.04Q293.31 43.34 293.07 42.21Q292.83 41.09 293.07 39.82Q293.24 38.87 293.76 37.92Q294.28 36.96 295.06 36.18Q295.84 35.41 296.82 34.94Q297.79 34.47 298.90 34.47Q299.84 34.47 300.31 34.83Q300.77 35.18 300.68 35.82Q300.58 36.43 300.00 36.99Q299.42 37.56 298.48 38.01Q297.55 38.47 296.41 38.79Q295.26 39.12 294.06 39.25L294.11 38.93Q295.98 38.65 297.25 38.03Q298.53 37.41 298.74 36.34Q298.90 35.71 298.56 35.43Q298.21 35.14 297.72 35.14Q296.97 35.14 296.39 35.66Q295.81 36.18 295.43 37.06Q295.05 37.93 294.88 38.99Q294.64 40.35 294.83 41.44Q295.03 42.52 295.66 43.17Q296.30 43.81 297.35 43.81Q297.91 43.81 298.55 43.63Q299.19 43.46 299.78 43.01Q299.84 42.96 299.93 43.06Q300.02 43.16 299.95 43.22Q299.00 44.05 298.07 44.40Q297.13 44.74 296.23 44.74ZM303.81 44.72Q302.81 44.72 302.09 44.24Q301.36 43.77 301.46 43.08Q301.52 42.69 301.78 42.49Q302.03 42.29 302.34 42.29Q302.71 42.29 302.91 42.57Q303.11 42.84 303.30 43.18Q303.49 43.53 303.81 43.80Q304.12 44.08 304.71 44.08Q305.31 44.08 305.66 43.74Q306.00 43.40 306.09 42.72Q306.20 41.93 305.86 41.37Q305.52 40.81 304.95 40.35Q304.39 39.90 303.84 39.43Q303.29 38.96 302.97 38.39Q302.66 37.81 302.81 37.01Q302.94 36.29 303.45 35.73Q303.96 35.17 304.70 34.86Q305.43 34.54 306.26 34.54Q307.24 34.54 307.86 34.92Q308.48 35.29 308.40 35.87Q308.34 36.27 308.07 36.46Q307.79 36.66 307.53 36.66Q307.09 36.66 306.88 36.43Q306.66 36.20 306.49 35.90Q306.33 35.60 306.08 35.38Q305.82 35.15 305.29 35.15Q304.83 35.15 304.51 35.39Q304.19 35.63 304.13 36.07Q304.00 36.80 304.35 37.35Q304.69 37.90 305.25 38.37Q305.82 38.84 306.37 39.33Q306.93 39.83 307.26 40.43Q307.59 41.03 307.45 41.83Q307.34 42.52 306.83 43.19Q306.33 43.87 305.55 44.29Q304.78 44.72 303.81 44.72ZM312.21 44.74Q311.69 44.74 311.23 44.55Q310.76 44.36 310.54 43.86Q310.32 43.36 310.48 42.45L311.52 36.79Q311.68 35.90 311.54 35.67Q311.40 35.44 310.67 35.44Q310.57 35.44 310.59 35.27Q310.61 35.10 310.68 35.10Q311.66 35.10 312.33 34.50Q313.00 33.91 313.28 33.09Q313.30 33.00 313.52 33.02Q313.74 33.04 313.71 33.12L312.16 41.79Q311.99 42.76 312.27 43.22Q312.56 43.67 313.33 43.67Q314.00 43.67 314.55 43.37Q315.11 43.07 315.65 42.61Q315.70 42.56 315.81 42.66Q315.92 42.76 315.85 42.82Q314.72 43.85 313.86 44.30Q313.00 44.74 312.21 44.74ZM315.87 35.94Q315.82 35.94 315.33 35.87Q314.85 35.80 314.19 35.73Q313.52 35.66 312.88 35.66L312.93 35.04Q313.63 35.04 314.37 34.99Q315.11 34.94 315.70 34.89Q316.30 34.85 316.50 34.85Q316.62 34.85 316.66 34.92Q316.70 34.99 316.68 35.09Q316.64 35.29 316.39 35.62Q316.13 35.94 315.87 35.94ZM320.73 44.74Q319.36 44.74 318.59 44.04Q317.81 43.34 317.57 42.21Q317.33 41.09 317.57 39.82Q317.74 38.87 318.26 37.92Q318.78 36.96 319.56 36.18Q320.34 35.41 321.32 34.94Q322.29 34.47 323.40 34.47Q324.34 34.47 324.81 34.83Q325.27 35.18 325.18 35.82Q325.08 36.43 324.50 36.99Q323.92 37.56 322.98 38.01Q322.05 38.47 320.91 38.79Q319.76 39.12 318.56 39.25L318.61 38.93Q320.48 38.65 321.75 38.03Q323.03 37.41 323.24 36.34Q323.40 35.71 323.06 35.43Q322.71 35.14 322.22 35.14Q321.47 35.14 320.89 35.66Q320.31 36.18 319.93 37.06Q319.55 37.93 319.38 38.99Q319.14 40.35 319.33 41.44Q319.53 42.52 320.16 43.17Q320.80 43.81 321.85 43.81Q322.41 43.81 323.05 43.63Q323.69 43.46 324.28 43.01Q324.34 42.96 324.43 43.06Q324.52 43.16 324.45 43.22Q323.50 44.05 322.57 44.40Q321.63 44.74 320.73 44.74ZM322.73 32.62Q322.70 32.69 322.57 32.64Q322.43 32.59 322.48 32.54L324.67 26.54Q324.71 26.45 325.01 26.35Q325.31 26.26 325.69 26.20Q326.07 26.15 326.33 26.15Q326.60 26.16 326.54 26.27ZM328.81 44.74Q328.29 44.74 327.83 44.55Q327.36 44.36 327.14 43.86Q326.92 43.36 327.08 42.45L328.12 36.79Q328.28 35.90 328.14 35.67Q328.00 35.44 327.27 35.44Q327.17 35.44 327.19 35.27Q327.21 35.10 327.28 35.10Q328.26 35.10 328.93 34.50Q329.60 33.91 329.88 33.09Q329.90 33.00 330.12 33.02Q330.34 33.04 330.31 33.12L328.76 41.79Q328.59 42.76 328.87 43.22Q329.16 43.67 329.93 43.67Q330.60 43.67 331.15 43.37Q331.71 43.07 332.25 42.61Q332.30 42.56 332.41 42.66Q332.52 42.76 332.45 42.82Q331.32 43.85 330.46 44.30Q329.60 44.74 328.81 44.74ZM332.47 35.94Q332.42 35.94 331.93 35.87Q331.45 35.80 330.79 35.73Q330.12 35.66 329.48 35.66L329.53 35.04Q330.23 35.04 330.97 34.99Q331.71 34.94 332.30 34.89Q332.90 34.85 333.10 34.85Q333.22 34.85 333.26 34.92Q333.30 34.99 333.28 35.09Q333.24 35.29 332.99 35.62Q332.73 35.94 332.47 35.94ZM336.12 44.67Q335.44 44.67 335.23 44.11Q335.01 43.56 335.28 42.22L336.30 37.02Q336.58 35.63 335.90 35.63Q335.62 35.63 335.20 35.91Q334.77 36.18 334.27 36.73Q334.18 36.83 334.08 36.71Q333.97 36.60 334.06 36.51Q334.93 35.51 335.63 35.04Q336.34 34.57 337.00 34.57Q337.69 34.57 337.88 35.12Q338.08 35.67 337.84 36.88L336.81 42.22Q336.67 42.96 336.80 43.27Q336.92 43.59 337.19 43.59Q337.47 43.59 337.88 43.31Q338.28 43.03 338.77 42.55Q338.87 42.45 338.97 42.55Q339.07 42.66 338.97 42.75Q338.16 43.69 337.48 44.18Q336.80 44.67 336.12 44.67ZM337.72 31.72Q337.17 31.72 336.85 31.42Q336.53 31.11 336.53 30.53Q336.53 30.03 336.85 29.72Q337.17 29.42 337.72 29.42Q338.28 29.42 338.58 29.72Q338.88 30.03 338.88 30.53Q338.88 31.72 337.72 31.72ZM343.78 44.77Q342.70 44.77 342.00 44.29Q341.30 43.81 340.95 43.02Q340.59 42.23 340.53 41.28Q340.47 40.33 340.66 39.39Q340.98 37.84 341.84 36.75Q342.71 35.65 343.85 35.06Q345.00 34.47 346.09 34.47Q346.68 34.47 347.21 34.65Q347.73 34.82 348.04 35.17Q348.36 35.52 348.31 36.01Q348.28 36.38 348.04 36.65Q347.80 36.91 347.35 36.91Q346.89 36.91 346.66 36.65Q346.43 36.38 346.33 36.01Q346.25 35.69 345.99 35.37Q345.73 35.06 345.15 35.06Q344.43 35.06 343.88 35.53Q343.33 36.01 342.98 36.80Q342.63 37.59 342.45 38.59Q342.21 39.96 342.37 41.15Q342.53 42.35 343.17 43.07Q343.81 43.79 344.98 43.79Q345.72 43.79 346.37 43.47Q347.01 43.15 347.49 42.77Q347.56 42.72 347.66 42.82Q347.76 42.92 347.69 42.99Q346.70 43.92 345.70 44.34Q344.71 44.77 343.78 44.77ZM350.77 44.77Q349.95 44.77 349.50 44.16Q349.06 43.56 349.24 42.17Q349.43 40.84 350.11 39.49Q350.78 38.14 351.75 37.00Q352.72 35.85 353.82 35.16Q354.91 34.47 355.92 34.47Q356.40 34.47 356.87 34.64Q357.34 34.82 357.68 35.21Q358.01 35.60 358.06 36.23L356.87 35.52Q357.21 35.47 357.64 35.11Q358.07 34.76 358.25 34.27Q358.30 34.19 358.44 34.23Q358.58 34.27 358.55 34.32L357.10 42.22Q356.86 43.59 357.45 43.59Q357.72 43.59 358.13 43.29Q358.53 43.00 359.02 42.52Q359.09 42.44 359.19 42.54Q359.29 42.64 359.22 42.72Q358.41 43.64 357.74 44.16Q357.07 44.67 356.42 44.67Q355.74 44.67 355.54 44.11Q355.33 43.55 355.56 42.22L356.17 38.72L356.63 38.29Q355.93 40.23 354.95 41.70Q353.96 43.16 352.88 43.97Q351.80 44.77 350.77 44.77ZM351.89 43.36Q352.56 43.36 353.26 42.83Q353.97 42.31 354.60 41.46Q355.24 40.62 355.70 39.62Q356.17 38.63 356.35 37.71Q356.55 36.72 356.18 36.08Q355.81 35.45 354.93 35.46Q354.12 35.47 353.29 36.17Q352.46 36.87 351.82 38.06Q351.17 39.24 350.94 40.76Q350.73 42.12 350.99 42.74Q351.24 43.36 351.89 43.36Z"/></svg>
